<svg width="50" height="50" viewBox="0 0 50 50" fill="none" xmlns="http://www.w3.org/2000/svg">
<rect width="50" height="50" fill="url(#paint0_linear_1_39)"/>
<path d="M21.9055 30.25C21.7716 29.7309 21.501 29.2572 21.1219 28.8781C20.7428 28.499 20.2691 28.2284 19.75 28.0945L10.5475 25.7215C10.3905 25.6769 10.2523 25.5824 10.1539 25.4522C10.0555 25.322 10.0023 25.1632 10.0023 25C10.0023 24.8368 10.0555 24.678 10.1539 24.5478C10.2523 24.4176 10.3905 24.3231 10.5475 24.2785L19.75 21.904C20.2689 21.7702 20.7425 21.4999 21.1216 21.1211C21.5007 20.7423 21.7713 20.2688 21.9055 19.75L24.2785 10.5475C24.3226 10.3899 24.4171 10.251 24.5475 10.1521C24.6779 10.0532 24.8371 9.99963 25.0007 9.99963C25.1644 9.99963 25.3236 10.0532 25.454 10.1521C25.5844 10.251 25.6789 10.3899 25.723 10.5475L28.0945 19.75C28.2284 20.2691 28.499 20.7428 28.8781 21.1219C29.2572 21.501 29.7309 21.7716 30.25 21.9055L39.4525 24.277C39.6107 24.3206 39.7503 24.415 39.8498 24.5456C39.9492 24.6762 40.0031 24.8358 40.0031 25C40.0031 25.1642 39.9492 25.3238 39.8498 25.4544C39.7503 25.585 39.6107 25.6794 39.4525 25.723L30.25 28.0945C29.7309 28.2284 29.2572 28.499 28.8781 28.8781C28.499 29.2572 28.2284 29.7309 28.0945 30.25L25.7215 39.4525C25.6774 39.6101 25.5829 39.749 25.4525 39.8479C25.3221 39.9468 25.1629 40.0004 24.9992 40.0004C24.8356 40.0004 24.6764 39.9468 24.546 39.8479C24.4156 39.749 24.3211 39.6101 24.277 39.4525L21.9055 30.25Z" stroke="#CBA6F7" stroke-width="3" stroke-linecap="round" stroke-linejoin="round"/>
<path d="M37 11.5V17.5" stroke="#CBA6F7" stroke-width="3" stroke-linecap="round" stroke-linejoin="round"/>
<path d="M40 14.5H34" stroke="#CBA6F7" stroke-width="3" stroke-linecap="round" stroke-linejoin="round"/>
<path d="M13 32.5V35.5" stroke="#CBA6F7" stroke-width="3" stroke-linecap="round" stroke-linejoin="round"/>
<path d="M14.5 34H11.5" stroke="#CBA6F7" stroke-width="3" stroke-linecap="round" stroke-linejoin="round"/>
<defs>
<linearGradient id="paint0_linear_1_39" x1="0" y1="25" x2="50" y2="25" gradientUnits="userSpaceOnUse">
<stop stop-color="#1E1E2E"/>
<stop offset="0.5" stop-color="#181825"/>
<stop offset="1" stop-color="#11111B"/>
</linearGradient>
</defs>
</svg>
